#!OML:ASF E:\Style4\Style4.ASF
:FULLY-SPECIFIED
:DEGREES
1595
root 1.6499 17.7384 0.257468 2.49297 11.7303 6.60479
lowerback 2.48257 1.45044 0.0814235
upperback 2.57434 1.93191 0.787286
thorax 1.22228 0.962063 0.73406
lowerneck 10.5012 0.836233 -4.26747
upperneck -5.03733 0.875726 4.51258
head -3.59221 0.324413 2.2257
rclavicle 8.15017e-015 -4.77083e-015
rhumerus -36.6662 9.92044 -91.0316
rradius 51.2704
rwrist 0.514431
rhand 5.24574 -9.06504
rfingers 7.12502
rthumb 30.6043 -36.5412
lclavicle 8.15017e-015 -4.77083e-015
lhumerus -36.9596 -15.9008 94.2828
lradius 52.0919
lwrist 5.30051
lhand 11.6191 40.7163
lfingers 7.12502
lthumb 36.6603 66.8678
rfemur -6.34595 3.58021 8.5495
rtibia 30.4577
rfoot -24.3223 -21.8572
rtoes -6.45013
lfemur -6.02968 -5.83149 -31.0198
ltibia 22.5965
lfoot -16.4502 -1.7873
ltoes -4.63751
1596
root 1.64783 17.736 0.255832 2.48672 11.7024 6.6361
lowerback 2.49171 1.45965 0.0647333
upperback 2.56898 1.94419 0.762035
thorax 1.21182 0.968188 0.717013
lowerneck 10.5237 0.845023 -4.22246
upperneck -5.02112 0.889363 4.4723
head -3.59035 0.331712 2.20257
rclavicle -1.96797e-014 -6.36111e-015
rhumerus -36.6809 9.89884 -91.0296
rradius 51.2553
rwrist 0.674883
rhand 5.38644 -9.02392
rfingers 7.12502
rthumb 30.7385 -36.4749
lclavicle -1.96797e-014 -6.36111e-015
lhumerus -36.9675 -15.877 94.2608
lradius 52.1005
lwrist 5.26911
lhand 11.6077 40.6785
lfingers 7.12502
lthumb 36.6495 66.8328
rfemur -6.38343 3.57312 8.51683
rtibia 30.5012
rfoot -24.2809 -21.8759
rtoes -6.63218
lfemur -6.0454 -5.80475 -31.0478
ltibia 22.6294
lfoot -16.4174 -1.81723
ltoes -4.21213
1597
root 1.64473 17.7331 0.253919 2.48434 11.6995 6.72632
lowerback 2.50157 1.45134 -0.0401346
upperback 2.57711 1.93184 0.739175
thorax 1.21212 0.960598 0.752282
lowerneck 10.4148 0.879069 -4.34839
upperneck -4.86676 0.925113 4.57351
head -3.52014 0.348738 2.25537
rclavicle -1.25234e-014 7.95139e-015
rhumerus -36.6779 9.96844 -91.0357
rradius 51.2459
rwrist 0.681507
rhand 5.45955 -9.01778
rfingers 7.12502
rthumb 30.8082 -36.4556
lclavicle -1.25234e-014 7.95139e-015
lhumerus -36.9793 -15.8535 94.2442
lradius 52.1329
lwrist 5.27303
lhand 11.6095 40.7167
lfingers 7.12502
lthumb 36.6513 66.8705
rfemur -6.41189 3.57741 8.42585
rtibia 30.5657
rfoot -24.3412 -21.8611
rtoes -6.64555
lfemur -6.0537 -5.80139 -31.1355
ltibia 22.6691
lfoot -16.4551 -1.89149
ltoes -4.03539
1598
root 1.64283 17.7318 0.252153 2.44973 11.69 6.72632
lowerback 2.51979 1.44284 -0.0472029
upperback 2.58534 1.92041 0.741986
thorax 1.21022 0.95476 0.758911
lowerneck 10.3791 0.936238 -4.48906
upperneck -4.7839 0.990117 4.6886
head -3.49159 0.37926 2.31561
rclavicle 1.09332e-014 -2.22639e-014
rhumerus -36.7027 10.0707 -91.0626
rradius 51.2379
rwrist 0.613986
rhand 5.32485 -9.07525
rfingers 7.12502
rthumb 30.6798 -36.5373
lclavicle 1.09332e-014 -2.22639e-014
lhumerus -37.0377 -15.8327 94.2404
lradius 52.205
lwrist 5.31075
lhand 11.6005 40.7288
lfingers 7.12502
lthumb 36.6428 66.8848
rfemur -6.42206 3.57861 8.43538
rtibia 30.6405
rfoot -24.3609 -21.8807
rtoes -6.79328
lfemur -6.04572 -5.80925 -31.1309
ltibia 22.7103
lfoot -16.5624 -1.93862
ltoes -4.04849
1599
root 1.64256 17.7308 0.251043 2.41856 11.6622 6.72222
lowerback 2.53763 1.44802 -0.00924423
upperback 2.59311 1.92804 0.724113
thorax 1.20996 0.959315 0.718925
lowerneck 10.3992 0.983997 -4.48405
upperneck -4.78257 1.05395 4.68964
head -3.49841 0.410497 2.31117
rclavicle -6.16232e-015 -1.11319e-014
rhumerus -36.709 10.1283 -91.1022
rradius 51.2216
rwrist 0.568591
rhand 5.20334 -9.11551
rfingers 7.12502
rthumb 30.5639 -36.5992
lclavicle -6.16232e-015 -1.11319e-014
lhumerus -37.0279 -15.8099 94.1928
lradius 52.1937
lwrist 5.35193
lhand 11.5733 40.5656
lfingers 7.12502
lthumb 36.617 66.7281
rfemur -6.41839 3.5745 8.42889
rtibia 30.7009
rfoot -24.4306 -21.7661
rtoes -6.5459
lfemur -6.03353 -5.79845 -31.1287
ltibia 22.7549
lfoot -16.6029 -1.86245
ltoes -4.11647
1600
root 1.64351 17.7286 0.251257 2.42183 11.6638 6.75073
lowerback 2.51068 1.43481 -0.00156333
upperback 2.60456 1.91046 0.717909
thorax 1.23746 0.950634 0.709506
lowerneck 10.3763 1.02445 -4.55559
upperneck -4.77041 1.09977 4.70311
head -3.4935 0.434334 2.32592
rclavicle 3.71727e-014 1.90833e-014
rhumerus -36.6932 10.3189 -91.1193
rradius 51.2272
rwrist 0.368787
rhand 5.10569 -9.17976
rfingers 7.12502
rthumb 30.4708 -36.6807
lclavicle 3.71727e-014 1.90833e-014
lhumerus -37.0246 -15.786 94.1824
lradius 52.2496
lwrist 5.41774
lhand 11.5458 40.5484
lfingers 7.12502
lthumb 36.591 66.7175
rfemur -6.43075 3.51025 8.38087
rtibia 30.7425
rfoot -24.444 -21.7207
rtoes -6.65781
lfemur -6.05459 -5.79761 -31.1703
ltibia 22.8112
lfoot -16.5497 -1.7975
ltoes -4.29197
1601
root 1.64337 17.7278 0.250855 2.39543 11.6974 6.69441
lowerback 2.49157 1.41046 0.0851788
upperback 2.62758 1.87901 0.728142
thorax 1.2746 0.936111 0.672878
lowerneck 10.4134 1.03603 -4.49401
upperneck -4.81803 1.11637 4.60906
head -3.51568 0.444926 2.28197
rclavicle 2.16675e-014 -1.74931e-014
rhumerus -36.6827 10.5014 -91.1514
rradius 51.2321
rwrist 0.263225
rhand 5.04345 -9.105
rfingers 7.12502
rthumb 30.4114 -36.617
lclavicle 2.16675e-014 -1.74931e-014
lhumerus -37.0042 -15.7477 94.1473
lradius 52.2973
lwrist 5.43956
lhand 11.5923 40.6458
lfingers 7.12502
lthumb 36.6349 66.8038
rfemur -6.42283 3.49182 8.44483
rtibia 30.7681
rfoot -24.5083 -21.7109
rtoes -6.58335
lfemur -6.07987 -5.77824 -31.1156
ltibia 22.8789
lfoot -16.5485 -1.79279
ltoes -4.65256
1602
root 1.64222 17.7279 0.249709 2.40157 11.729 6.66465
lowerback 2.46895 1.39354 0.133952
upperback 2.63041 1.85701 0.727157
thorax 1.29197 0.92587 0.645577
lowerneck 10.4848 1.03555 -4.40408
upperneck -4.88472 1.11839 4.49468
head -3.54973 0.448274 2.22723
rclavicle -1.45113e-014 -1.59028e-015
rhumerus -36.6741 10.6884 -91.1976
rradius 51.2004
rwrist 0.161795
rhand 5.00316 -9.00985
rfingers 7.12502
rthumb 30.373 -36.5289
lclavicle -1.45113e-014 -1.59028e-015
lhumerus -36.9844 -15.6727 94.0931
lradius 52.2479
lwrist 5.38036
lhand 11.6636 40.5139
lfingers 7.12502
lthumb 36.7025 66.6547
rfemur -6.44364 3.47604 8.48725
rtibia 30.791
rfoot -24.5435 -21.7256
rtoes -6.39219
lfemur -6.13605 -5.7756 -31.0786
ltibia 22.9515
lfoot -16.5738 -1.78591
ltoes -4.7134
1603
root 1.6418 17.7272 0.248978 2.37679 11.7283 6.66359
lowerback 2.47513 1.37484 0.124747
upperback 2.65043 1.83181 0.740967
thorax 1.30858 0.912982 0.665373
lowerneck 10.4338 1.06297 -4.44964
upperneck -4.83882 1.14851 4.48256
head -3.52572 0.465146 2.22861
rclavicle -2.82274e-014 -1.90833e-014
rhumerus -36.6719 10.914 -91.2246
rradius 51.1977
rwrist 0.100214
rhand 4.96587 -9.01283
rfingers 7.12502
rthumb 30.3374 -36.5385
lclavicle -2.82274e-014 -1.90833e-014
lhumerus -36.9665 -15.5503 94.0506
lradius 52.2647
lwrist 5.37319
lhand 11.7396 40.3963
lfingers 7.12502
lthumb 36.7744 66.5188
rfemur -6.42532 3.44675 8.48307
rtibia 30.8137
rfoot -24.5371 -21.6692
rtoes -6.2535
lfemur -6.14768 -5.76165 -31.0779
ltibia 23.0179
lfoot -16.6131 -1.8229
ltoes -4.55021
1604
root 1.64039 17.724 0.247011 2.37024 11.7343 6.69581
lowerback 2.45893 1.37244 0.0856394
upperback 2.66972 1.82801 0.733168
thorax 1.33654 0.910471 0.680075
lowerneck 10.399 1.07792 -4.45317
upperneck -4.79758 1.16691 4.46474
head -3.50517 0.475401 2.22117
rclavicle 1.31198e-014 6.36111e-015
rhumerus -36.6663 11.0466 -91.2454
rradius 51.1664
rwrist 0.0828682
rhand 4.96345 -8.9626
rfingers 7.12502
rthumb 30.3351 -36.4887
lclavicle 1.31198e-014 6.36111e-015
lhumerus -36.9557 -15.5475 94.0338
lradius 52.2947
lwrist 5.40618
lhand 11.7659 40.4089
lfingers 7.12502
lthumb 36.7992 66.525
rfemur -6.45204 3.40185 8.44396
rtibia 30.8504
rfoot -24.448 -21.7053
rtoes -6.61347
lfemur -6.17897 -5.75848 -31.1107
ltibia 23.0711
lfoot -16.5971 -1.86903
ltoes -4.27407
1605
root 1.63857 17.7208 0.246436 2.34487 11.757 6.72606
lowerback 2.45001 1.38338 0.079463
upperback 2.68411 1.84267 0.70732
thorax 1.35679 0.917913 0.657376
lowerneck 10.4612 1.06441 -4.43715
upperneck -4.81168 1.1487 4.46008
head -3.52098 0.465637 2.2184
rclavicle -1.25234e-014 1.27222e-014
rhumerus -36.6804 11.0896 -91.2698
rradius 51.1469
rwrist -0.0409193
rhand 4.92328 -8.92422
rfingers 7.12502
rthumb 30.2968 -36.4573
lclavicle -1.25234e-014 1.27222e-014
lhumerus -36.9693 -15.6046 94.0166
lradius 52.315
lwrist 5.37865
lhand 11.8283 40.4256
lfingers 7.12502
lthumb 36.8583 66.5266
rfemur -6.44572 3.37642 8.41597
rtibia 30.8962
rfoot -24.4884 -21.6835
rtoes -6.63109
lfemur -6.17621 -5.73462 -31.135
ltibia 23.1219
lfoot -16.5775 -1.94426
ltoes -4.16519
